<svg height="2350" width="720" xmlns="http://www.w3.org/2000/svg">
<rect height="2350" fill="#555" width="720"></rect>
<text fill="#7f7" font-family="Courier New" font-size="12" xml:space="preserve">
<tspan x="10" y="26"></tspan>
<tspan x="10" y="42">&gt; npmdoc-schema-inspector@0.0.1 test /home/travis/build/npmdoc/node-npmdoc-schema-inspector</tspan>
<tspan x="10" y="58">&gt; (set -e; export PORT=$(utility2 shServerPortRandom); utility2 test test.js)</tspan>
<tspan x="10" y="74"></tspan>
<tspan x="10" y="90"></tspan>
<tspan x="10" y="106">[MODE_BUILD=npmTest] - 2017-04-07T11:37:43Z - npm-testing /home/travis/build/npmdoc/node-npmdoc-\</tspan>
<tspan x="10" y="122">schema-inspector</tspan>
<tspan x="10" y="138"></tspan>
<tspan x="10" y="154"></tspan>
<tspan x="10" y="170">covering $ /home/travis/.nvm/versions/node/v6.10.2/bin/node /home/travis/build/npmdoc/node-npmdo\</tspan>
<tspan x="10" y="186">c-schema-inspector/test.js</tspan>
<tspan x="10" y="202">merging file:///home/travis/build/npmdoc/node-npmdoc-schema-inspector/tmp/build/test-report.json\</tspan>
<tspan x="10" y="218"> to test-report</tspan>
<tspan x="10" y="234">&gt; server listening on http-port 56005</tspan>
<tspan x="10" y="250">Property @: Property @.age: must be integer, but is string</tspan>
<tspan x="10" y="266">Property @[invalidDate]: must be a valid date</tspan>
<tspan x="10" y="282">Property @[noDate]: must be date, but is string</tspan>
<tspan x="10" y="298">created apidoc file:///home/travis/build/npmdoc/node-npmdoc-schema-inspector/tmp/build/apidoc.ht\</tspan>
<tspan x="10" y="314">ml</tspan>
<tspan x="10" y="330"></tspan>
<tspan x="10" y="346"></tspan>
<tspan x="10" y="362">browserTest - created electron entry-page /home/travis/build/npmdoc/node-npmdoc-schema-inspector\</tspan>
<tspan x="10" y="378">/tmp/electron.15b4834ae8a0.107135fb05716.html</tspan>
<tspan x="10" y="394"></tspan>
<tspan x="10" y="410">[node test-case 1 of 6 passed] - testCase_buildLib_default</tspan>
<tspan x="10" y="426">[node test-case 2 of 6 passed] - testCase_buildReadme_default</tspan>
<tspan x="10" y="442">[node test-case 3 of 6 passed] - testCase_buildTest_default</tspan>
<tspan x="10" y="458"></tspan>
<tspan x="10" y="474">browserTest - created electron entry-page /home/travis/build/npmdoc/node-npmdoc-schema-inspector\</tspan>
<tspan x="10" y="490">/tmp/electron.15b4834aeef0.f1efc462f2a3a.html</tspan>
<tspan x="10" y="506"></tspan>
<tspan x="10" y="522">Xlib:  extension "RANDR" missing on display ":99.0".</tspan>
<tspan x="10" y="538">test</tspan>
<tspan x="10" y="554">test</tspan>
<tspan x="10" y="570">test</tspan>
<tspan x="10" y="586">test</tspan>
<tspan x="10" y="602">test</tspan>
<tspan x="10" y="618">test</tspan>
<tspan x="10" y="634">test</tspan>
<tspan x="10" y="650">{ error: </tspan>
<tspan x="10" y="666">   [ { code: null,</tspan>
<tspan x="10" y="682">       reason: 'type',</tspan>
<tspan x="10" y="698">       message: 'must be number, but is string',</tspan>
<tspan x="10" y="714">       property: '@[_connection]' } ],</tspan>
<tspan x="10" y="730">  valid: false,</tspan>
<tspan x="10" y="746">  format: [Function: format] }</tspan>
<tspan x="10" y="762">Property @[_connection]: must be number, but is string</tspan>
<tspan x="10" y="778">Xlib:  extension "RANDR" missing on display ":99.0".</tspan>
<tspan x="10" y="794">&gt; server listening on http-port 59768</tspan>
<tspan x="10" y="810">merging file:///home/travis/build/npmdoc/node-npmdoc-schema-inspector/tmp/build/test-report.json\</tspan>
<tspan x="10" y="826"> to test-report</tspan>
<tspan x="10" y="842">Xlib:  extension "RANDR" missing on display ":99.0".</tspan>
<tspan x="10" y="858">merging file:///home/travis/build/npmdoc/node-npmdoc-schema-inspector/tmp/build/test-report.json\</tspan>
<tspan x="10" y="874"> to test-report</tspan>
<tspan x="10" y="890">[5940:0407/113744:WARNING:audio_manager.cc(314)] Multiple instances of AudioManager detected</tspan>
<tspan x="10" y="906">[5940:0407/113744:WARNING:audio_manager.cc(275)] Multiple instances of AudioManager detected</tspan>
<tspan x="10" y="922">Xlib:  extension "RANDR" missing on display ":99.0".</tspan>
<tspan x="10" y="938">[5951:0407/113744:WARNING:audio_manager.cc(314)] Multiple instances of AudioManager detected</tspan>
<tspan x="10" y="954">[5951:0407/113744:WARNING:audio_manager.cc(275)] Multiple instances of AudioManager detected</tspan>
<tspan x="10" y="970">[5983:0407/113744:ERROR:sandbox_linux.cc(343)] InitializeSandbox() called with multiple threads \</tspan>
<tspan x="10" y="986">in process gpu-process. </tspan>
<tspan x="10" y="1002">[5940:0407/113744:ERROR:browser_gpu_channel_host_factory.cc(131)] Failed to create channel.</tspan>
<tspan x="10" y="1018">[6006:0407/113744:ERROR:sandbox_linux.cc(343)] InitializeSandbox() called with multiple threads \</tspan>
<tspan x="10" y="1034">in process gpu-process. </tspan>
<tspan x="10" y="1050">[5951:0407/113744:ERROR:browser_gpu_channel_host_factory.cc(131)] Failed to create channel.</tspan>
<tspan x="10" y="1066"></tspan>
<tspan x="10" y="1082">browserTest - opened url /home/travis/build/npmdoc/node-npmdoc-schema-inspector/tmp/build/apidoc\</tspan>
<tspan x="10" y="1098">.html</tspan>
<tspan x="10" y="1114"></tspan>
<tspan x="10" y="1130"></tspan>
<tspan x="10" y="1146">browserTest - opened url http://127.0.0.1:56005?modeTest=1</tspan>
<tspan x="10" y="1162"></tspan>
<tspan x="10" y="1178">[5951:0407/113746:INFO:CONSOLE(250)] "----------|-----------|-----------|-----------|-----------\</tspan>
<tspan x="10" y="1194">|</tspan>
<tspan x="10" y="1210">File      |   % Stmts |% Branches |   % Funcs |   % Lines |</tspan>
<tspan x="10" y="1226">----------|-----------|-----------|-----------|-----------|</tspan>
<tspan x="10" y="1242">----------|-----------|-----------|-----------|-----------|</tspan>
<tspan x="10" y="1258">All files |       100 |       100 |       100 |       100 |</tspan>
<tspan x="10" y="1274">----------|-----------|-----------|-----------|-----------|</tspan>
<tspan x="10" y="1290">", source: file:///home/travis/build/npmdoc/node-npmdoc-schema-inspector/tmp/electron.15b4834aee\</tspan>
<tspan x="10" y="1306">f0.f1efc462f2a3a.html (250)</tspan>
<tspan x="10" y="1322">[5951:0407/113746:INFO:CONSOLE(250)] "created coverage file:///tmp/build/coverage.html/index.htm\</tspan>
<tspan x="10" y="1338">l", source: file:///home/travis/build/npmdoc/node-npmdoc-schema-inspector/tmp/electron.15b4834ae\</tspan>
<tspan x="10" y="1354">ef0.f1efc462f2a3a.html (250)</tspan>
<tspan x="10" y="1370">[node test-case 4 of 6 passed] - testCase_buildApp_default</tspan>
<tspan x="10" y="1386"></tspan>
<tspan x="10" y="1402">browserTest - created screenCapture file:///home/travis/build/npmdoc/node-npmdoc-schema-inspecto\</tspan>
<tspan x="10" y="1418">r/tmp/build/screenCapture.npmTest.browser._2Fhome_2Ftravis_2Fbuild_2Fnpmdoc_2Fnode-npmdoc-schema\</tspan>
<tspan x="10" y="1434">-inspector_2Ftmp_2Fbuild_2Fapidoc.html.png</tspan>
<tspan x="10" y="1450"></tspan>
<tspan x="10" y="1466">browserTest - created screenCapture file:///home/travis/build/npmdoc/node-npmdoc-schema-inspecto\</tspan>
<tspan x="10" y="1482">r/tmp/build/screenCapture.npmTest.browser._2Fhome_2Ftravis_2Fbuild_2Fnpmdoc_2Fnode-npmdoc-schema\</tspan>
<tspan x="10" y="1498">-inspector_2Ftmp_2Fbuild_2Fapidoc.html.html</tspan>
<tspan x="10" y="1514"></tspan>
<tspan x="10" y="1530">browserTest - exit-code 0 - /home/travis/build/npmdoc/node-npmdoc-schema-inspector/tmp/build/api\</tspan>
<tspan x="10" y="1546">doc.html</tspan>
<tspan x="10" y="1562"></tspan>
<tspan x="10" y="1578">[node test-case 5 of 6 passed] - testCase_buildApidoc_default</tspan>
<tspan x="10" y="1594"></tspan>
<tspan x="10" y="1610">browserTest - created screenCapture file:///home/travis/build/npmdoc/node-npmdoc-schema-inspecto\</tspan>
<tspan x="10" y="1626">r/tmp/build/screenCapture.npmTest.browser..png</tspan>
<tspan x="10" y="1642"></tspan>
<tspan x="10" y="1658">browserTest - created screenCapture file:///home/travis/build/npmdoc/node-npmdoc-schema-inspecto\</tspan>
<tspan x="10" y="1674">r/tmp/build/screenCapture.npmTest.browser..html</tspan>
<tspan x="10" y="1690"></tspan>
<tspan x="10" y="1706">browserTest - exit-code 0 - http://127.0.0.1:56005?modeTest=1</tspan>
<tspan x="10" y="1722"></tspan>
<tspan x="10" y="1738"></tspan>
<tspan x="10" y="1754">browserTest - merged coverage from /home/travis/build/npmdoc/node-npmdoc-schema-inspector/tmp/co\</tspan>
<tspan x="10" y="1770">verage.npmTest.browser.%2F.json</tspan>
<tspan x="10" y="1786"></tspan>
<tspan x="10" y="1802"></tspan>
<tspan x="10" y="1818">browserTest - merging test-report from /home/travis/build/npmdoc/node-npmdoc-schema-inspector/tm\</tspan>
<tspan x="10" y="1834">p/test-report.npmTest.browser.%2F.json</tspan>
<tspan x="10" y="1850"></tspan>
<tspan x="10" y="1866">[node test-case 6 of 6 passed] - testCase_webpage_default</tspan>
<tspan x="10" y="1882">-------------------------------------|-----------|-----------|-----------|-----------|</tspan>
<tspan x="10" y="1898">File                                 |   % Stmts |% Branches |   % Funcs |   % Lines |</tspan>
<tspan x="10" y="1914">-------------------------------------|-----------|-----------|-----------|-----------|</tspan>
<tspan x="10" y="1930">   node-npmdoc-schema-inspector/     |       100 |       100 |       100 |       100 |</tspan>
<tspan x="10" y="1946">      example.js                     |       100 |       100 |       100 |       100 |</tspan>
<tspan x="10" y="1962">      lib.npmdoc_schema_inspector.js |       100 |       100 |       100 |       100 |</tspan>
<tspan x="10" y="1978">      test.js                        |       100 |       100 |       100 |       100 |</tspan>
<tspan x="10" y="1994">-------------------------------------|-----------|-----------|-----------|-----------|</tspan>
<tspan x="10" y="2010">All files                            |       100 |       100 |       100 |       100 |</tspan>
<tspan x="10" y="2026">-------------------------------------|-----------|-----------|-----------|-----------|</tspan>
<tspan x="10" y="2042"></tspan>
<tspan x="10" y="2058">created coverage file:///home/travis/build/npmdoc/node-npmdoc-schema-inspector/tmp/build/coverag\</tspan>
<tspan x="10" y="2074">e.html/index.html</tspan>
<tspan x="10" y="2090">merging file:///home/travis/build/npmdoc/node-npmdoc-schema-inspector/tmp/build/test-report.json\</tspan>
<tspan x="10" y="2106"> to test-report</tspan>
<tspan x="10" y="2122"></tspan>
<tspan x="10" y="2138">-------------------------------------------------------</tspan>
<tspan x="10" y="2154">| test-report - buildNpmdoc - node - linux v6.10.2 - 2017-04-07T11:37:03.459Z</tspan>
<tspan x="10" y="2170">|   55263 ms            0 failed        6 passed      |</tspan>
<tspan x="10" y="2186">-------------------------------------------------------</tspan>
<tspan x="10" y="2202"></tspan>
<tspan x="10" y="2218">created test-report file:///home/travis/build/npmdoc/node-npmdoc-schema-inspector/tmp/build/test\</tspan>
<tspan x="10" y="2234">-report.html</tspan>
<tspan x="10" y="2250"></tspan>
<tspan x="10" y="2266"></tspan>
<tspan x="10" y="2282">npmTest - 0 failed tests</tspan>
<tspan x="10" y="2298"></tspan>
<tspan x="10" y="2314"></tspan>
<tspan x="10" y="2330">[MODE_BUILD=npmTest] - 2017-04-07T11:38:01Z - EXIT_CODE - 0</tspan>
</text>
</svg>
